<?xml version="1.0" encoding="UTF-8"?>
<svg version="1.1" viewBox="0 0 2000 2000" width="500" height="500" xmlns="http://www.w3.org/2000/svg">
<path transform="translate(0)" d="m0 0h2e3v2e3h-2e3z" fill="#FEFEFE"/>
<path transform="translate(955,487)" d="m0 0h88l44 2 49 5 39 6 36 7 38 9 45 12 43 14 34 13 28 12 33 15 26 12 23 13 27 15 22 13 21 13 1 5-7 53-6 35-6 32-5 5-24 14-15 9-21 13-12 8-29 19-4-2-16-10-20-12-22-12-30-15-33-15-31-12-25-9-26-8-52-13-44-8-29-4-29-3-36-2h-63l-35 2-46 5-46 8-38 9-37 10-27 9-37 14-42 19-32 16-23 13-16 10-12 8-1 1-7-1-30-20-17-11-32-19-18-11-5-5-5-23-8-49-5-38-1-14 3-3 17-10 20-12 21-12 27-15 26-13 36-16 30-13 35-13 43-14 33-9 45-11 35-7 38-6 46-5 27-2z" fill="#525252"/>
<path transform="translate(1008,752)" d="m0 0h13l8 2 10 6 9 8 7 11 2 6 1 8-3 18-6 15-4 9-3 7-6 6-11 4-6-2-4-10-3-1v9l2 10 3 5 7 11 6 11 14 8 11 8 14 9 16 9 18 7 9 1 11-2 2-6h5l3 5h5l5-1 10 19 5 10 6-1 5-1-4-10-10-17-9-12-6-7-4-4v-14l5 2 10 9 11 9 15 14 17 16 9 10 12 14 10 13 9 14 4 9-8 10-9 9-7 4-21 3-16 4 2 4 33-1 14 2 15 4 16 8 10 7 3 3v5l10 9 8 9 8 12 6 14 5 19 1 8v9l-2 15-5 16-7 14-9 12-8 9-14 10-15 8-16 5-13 2h-10l-19-3-15-5-13-7-13-10-9-9-9-13-7-14-4-12-2-11v-23l4-16 7-17 7-11 11-12 8-7v-2l-6-2h-8l-12 4h-4l2-4 12-9 11-6-1-4-17 7-14 8-17 13-8 7v26l4 27 8 30 12 33-14 1h-192l-10-4-7-8-2-5v-11l4-8 8-10h-21l-2 12-6 18-9 16-9 11-7 7-14 10-14 7-15 4-16 2-19-1-15-4-12-5-11-7-10-8-9-9-10-14-6-13-4-12-2-11v-23l4-17 7-16 7-11 11-12 13-11 12-7 18-6 12-2h21l20 4 18 8 13 9 10 10 10 14v2l10-4h2l-5-9-9-11-19-19-4-6v-3l6 2 12 7 17 12 17 14 4 4 4 1v-9l4-6v-4l-3-2-1-3v-9l5-13 7-14 1-4-32-13-16-7-1-3-4-2-16-10-26-15-15-9-21-12h-8l-20 7-8 11-9 14-9 13-2 2h-4l3-10 5-17 1-5-4-2-3-3 1-3 23-11 28-13 5-1-3-14-4-14v-6l9 1 46 16 31 11 7 3 8 7 7 9 2 3 12-31 9-17 10-16 16-26 12-18 10-10 5-3 11-3 7-10-1-5-5-9 1-10 5-12 9-10 9-4z" fill="#575655"/>
<path transform="translate(574,1279)" d="m0 0h853l1 3-8 18-16 33-7 15v7l16 34 15 32v3l-632 1-221-1-2-1 1-6 13-28 13-26 4-9-1-7-12-24-13-28-5-12z" fill="#525252"/>
<path transform="translate(1550,738)" d="m0 0 7 4 12 10 13 10 17 14 21 18 1 4-5 5-26 12-24 11-16 8-35 18-3 1-2 9-8 26-13 38-13 34-3 5-9-3-18-14-16-13-19-14-17-12-22-14-24-14-28-15-17-9-17-7-1-2 10-2 30-2h39l23 1 38 4 6-1 10-7 23-15 22-14 22-13 22-12 9-5 3-7 7-36z" fill="#535353"/>
<path transform="translate(446,739)" d="m0 0h4l8 40 5 5 22 12 22 13 19 12 17 11 22 14 6 3 20-2 18-2 17-1h42l23 1 21 2v3l-18 8-29 15-23 13-22 13-15 10-16 11-19 14-12 10-14 11-11 8-2 1h-6l-5-10-11-30-13-38-9-30-4-4-46-24-14-7-29-13-14-7-1-7 7-7 11-9 13-11 17-13 15-12z" fill="#535353"/>
<path transform="translate(991,1444)" d="m0 0h16l12 3 11 6 9 8 7 11 4 10 1 4v18l-3 12-6 10-9 10-9 6-10 4-18 1-13-2-8-3-9-7-7-7-7-12-3-11v-19l4-13 6-10 5-6 10-7 12-5z" fill="#555454"/>
<path transform="translate(1165,918)" d="m0 0 8 6 1 3 4 2 9 8 5 5 12 13 9 11 12 16 2 5-6-1-21-9-19-7-5 1-13 10-9 10-3 4-1 4 20 3 20 6v2l-16 4-18 6-29 13-15 9-14 10-9 8-3 10v18l3 25 1 7-5-1-3-6-4-22-1-9v-21l5-10 8-7 15-9 17-10 25-10 20-6-3-2-13-2h-6l-2 5-23 12-21 12-27 18-7 5 3 6v13l-1 1h-13l-12-1h-18l-1-8 7-6 6-4-4 1-16 8-1 1-1 13-2-3-4-10 2-4 19-10 23-10 27-10 7-3 14-32-23 7-19 8-6 2 3-3 5-2 1-3h2l2-4 11-4h2v-2l-11 3-3-9-3-7-1-4 5-3 15-3h2l-7-8-12-14-6-5-6-2-17-3-2-2 8-1h12l2 1 2-1 12 1 12 3 4 4-17-4 4 7 14 15 11 10 8 3 11-1 26-7 23-10 8-4 3 1 2 5 19 6 6 3-10-18-13-17-4-5v-2l-5 1-5-9z" fill="#FDFDFD"/>
<path transform="translate(1221,580)" d="m0 0 9 1 20 6 4 4 2 49v19l5-5 14-19 10-14 13-18 9 1 22 7 2 3-4 7h-10l-2 10-10 34-4 14-1 6 7 2-1 10-2 1-28-8-6-2-1-3 5-8 9 1 2-10 12-37v-2l-13 17-10 13-10 14-8 10-9-2-3-2-3-53-1-15h-2l-4 21-8 31 7 2 1 2-2 8-8-1-26-7-1-1v-7l2-3h9l5-16 13-43 1-5-6-1-1-1v-7z" fill="#FEFEFE"/>
<path transform="translate(775,579)" d="m0 0h4l1 2v8l-5 2 2 39 2 30v12l-8 3-7 1-4-4-12-20-10-15-7-11-2-1 1 12 1 48-1 2-12 4-4-1-8-13-14-25-14-24-4-7-4 1-4-2-1-8 21-7 10-1 1 2v8l-5 2 3 7 10 19 6 10 4 8v-63l8-3h5l6 9 10 16 13 20 4 6v2h2l-2-13-3-37-8-1-2-4v-5l22-7z" fill="#FEFEFE"/>
<path transform="translate(1207,1075)" d="m0 0h16l14 4 12 7 8 7 7 10 7 16 1 5v20l-4 13-6 11-9 10-7 6-15 7-10 2h-17l-12-3-14-7-10-9-7-10-5-11-2-7-1-8v-11l2-10 6-13 6-8 5-4 7 3 3 5-1 5-5 6-5 12-1 6v11l4 13 8 11 7 6 11 5 6 1h14l11-3 10-6 7-8 6-12 1-4v-18l-4-11-8-11-8-6-9-4-5-1-17-1-1-9 2-5z" fill="#FEFEFE"/>
<path transform="translate(966,821)" d="m0 0h12l11 6 9 10 8 15 2 7 1 10h2l1-3h2l10 25 4 5 3 3-1-8 8 4 20 13 21 13 12 6 5 3 1 4-2 4-7-3-21-11-11-8 2 6-9-2-24-9-4-2-7 1-5-4-1-3-1-18h-3l-2-1 1-3-5-13h-1l-2 15-4-1v-3h-2l-2-7h-2l1 10-5-1-6-8-2-1-1 3-13 5-6 4-8 11-6 8-3 2v2l3 3-14 7h-3l2-5 7-10 1-2-8 6-4 4h-2v-2h2l2-5 20-25 7-7 13-9 9-4-2-6-4-4-9-5-1-2v-8l3-6 6-5z" fill="#FDFDFD"/>
<path transform="translate(708,781)" d="m0 0 3 1 16 41 6 16h-19l-40-2h-36l-40 2 1-3 22-13 23-12 38-19 21-9z" fill="#BCA98B"/>
<path transform="translate(1289,781)" d="m0 0 16 6 36 17 24 12 23 13 13 7v2l-49-1h-30l-39 2h-17l3-9 11-28 8-20z" fill="#BCA98B"/>
<path transform="translate(1145,566)" d="m0 0 17 3 3 13 11 64v5l6 2 1 2-1 8-13-1-17-3v-8l1-2 6-2-2-11-6-2-23-3-5 9v2l4 2v9l-1 1-13-1-16-3-1-5 2-5 6-1 13-24 12-22 13-24z" fill="#FEFEFE"/>
<path transform="translate(778,1088)" d="m0 0h21l13 5 11 9 1 3-11 6-5-1-10-5-6-1h-12l-9 3-8 7-5 10-1 3v15l5 10 5 5 9 6 6 2h11l11-4 10-9 4-6 3-1h13l-3 9-7 11-8 7-16 8-6 1h-12l-14-3-10-6-7-7-7-11-3-9-1-5v-12l3-12 7-11 9-9 12-6z" fill="#FEFEFE"/>
<path transform="translate(1006,1104)" d="m0 0 16 4 45 12 22 5 3 4 7 25 4 12-1 3-7-10-7-17-4-12v-2l-14-2-15-3h-3l16 7 3 4 4 17-2 1-48-10-27-6-21-5-3-2 9-1 4-3-1-5-2-1 1-3 10-4 9-6z" fill="#FEFEFE"/>
<path transform="translate(958,555)" d="m0 0h36v9l-2 2-8 1 1 6v59l26-1 1-10 1-1h8l5 2v22l-3 1h-64l-1-1v-8l8-3 1-4-1-62-7-1-2-5v-5z" fill="#FEFEFE"/>
<path transform="translate(890,560)" d="m0 0h10v10l-6 2h-2l7 64 25-2v-9l1-2 3-1h9l2 6 1 17-5 2-59 6h-3l-1-3v-7l8-3-1-16-5-50h-8l-2-2v-9z" fill="#FEFEFE"/>
<path transform="translate(780,1069)" d="m0 0h12l14 2 13 5 11 7 11 12v4l-6 2-12-12-12-7-9-3-6-1h-19l-13 4-10 6-10 9-7 11-4 10-1 6v20l4 13 5 9 11 12 16 9 10 3 13 1 15-3 14-7 10-8 9-14 5-14 4-2 4 1-2 9-5 12-7 10-4 5-10 8-14 7-14 3h-18l-16-4-11-6-10-9-6-7-8-14-4-15v-18l4-16 7-12 9-11 10-8 16-7z" fill="#FEFEFE"/>
<path transform="translate(956,938)" d="m0 0 11 2 17 4 16 8 15 10 17 10 18 10 3 5v5l-8 7-15 8-18 7-17 8-6 3-5-5v-3l7-6 18-10 14-6 11-4h5v-2l-11 1-8 1h-9l1-3 6-1v-3l-8-1-4 1-8-7-7-6 1-9-5-4-12-5-37-10 1-2z" fill="#FEFEFE"/>
<path transform="translate(777,1050)" d="m0 0h22l15 3 12 5 11 7 11 9 7 7 5 8v3h-5l-7-9-2-1 7 11-3 3-4-2-8-10-9-8-15-8-11-3-19-1-14 2-14 5-10 6-10 9-7 8-8 16-3 13v22l3 11 2 7-4-4-4-8-3-14v-12l3-17 5-12 7-12 3-6-6 6-7 8-3 3-1-3 7-11 11-11 11-8 14-7 13-4z" fill="#FDFDFD"/>
<path transform="translate(652,1251)" d="m0 0h696l-1 3-256 1h-235l-204-1z" fill="#B9A789"/>
<path transform="translate(831,568)" d="m0 0h8l1 8-2 3-5 1v8l9 49 2 8 9 1 2 8-1 2-25 5-10 1-2-6v-4l8-2-4-25-7-39v-2h-10l-1-10 6-2z" fill="#FEFEFE"/>
<path transform="translate(1049,556)" d="m0 0h11l25 2 1 1-1 9-1 1-7 1-1 1-4 56-1 9 8 1 1 1v9l-1 1h-12l-22-2-2-1v-7l3-3h7l3-42 2-25-9-2z" fill="#FEFEFE"/>
<path transform="translate(848,1324)" d="m0 0h15l8 4 6 8 2 5v16l-4 10-8 7-4 2h-14l-8-4-6-8-3-12 1-10 4-9 5-6z" fill="#FEFEFE"/>
<path transform="translate(1011,756)" d="m0 0 7 1 8 7 12 12-7-11-6-6v-2l5 1 9 6 9 10 5 9 1 4v9l-3 4-6-1-12-12-4-2h-7l-4 4-3 8 1 7 6 4 1-5 3-10 4-4 7 6 1 3-8 18-2 4-9-8-12-8-6-5-1-2v-11l6-16 5-8-5 1-9 6-7 8-2-1 3-7 5-6 6-4z" fill="#FEFEFE"/>
<path transform="translate(980,1060)" d="m0 0h9l10 6 4 5 3 7v10l-4 10-4 5-8 5-3 1h-16l-8-6-5-10v-13l3-7h2l2-4 3-3z" fill="#615E5A"/>
<path transform="translate(910,1144)" d="m0 0h8l54 8 29 5 9 6 10 9-1 2h-18v-2l2-1 1-4-14-1-62-8-6-1 2 6-1 8-7 6-5 1-6-3-4-5v-9l4-4 7-2-4-5 1-5z" fill="#FEFEFE"/>
<path transform="translate(900,1324)" d="m0 0h24l9 2 6 7 1 8-2 5-4 4 5 5 3 12 3 5v3h-10l-3-4-4-14-1-1h-13l1 11 4 4v4l-8 1h-10l-3-1 1-4 3-1 1-3v-36l-4-2-1-4z" fill="#FEFEFE"/>
<path transform="translate(1192,1087)" d="m0 0h6l11 27 11 2 6 4 5 6 1 3v10l-3 6-7 6-5 2h-9l-8-4-4-5-2-4v-12l4-7-1-6-9-21v-5z" fill="#FEFEFE"/>
<path transform="translate(773,1324)" d="m0 0h26l9 3 4 5 1 3v12l-5 6-7 3-7 1h-9l2 10 4 4v4l-9 1h-11l-1-4 5-5v-36l-4-2-1-4z" fill="#FEFEFE"/>
<path transform="translate(1201,1324)" d="m0 0h8l4 6 10 28 4 10 3 5v2l-3 1h-13l-1-5 2-9h-19l2 13-7 1h-9l-2-2 7-14 10-29z" fill="#FEFEFE"/>
<path transform="translate(1246,1060)" d="m0 0h7l7 4 13 10 7 8 7 11 7 15 2 6v5l-3-3-8-16-6-10-6-7-1 1 9 16 4 11 2 15v9l-3 16-7 16-6 9-7 7-2-1 8-10 7-14 3-10 1-5v-19l-4-15-7-14-8-10-8-7-16-8-10-3v-2z" fill="#FEFEFE"/>
<path transform="translate(999,385)" d="m0 0 3 1 6 14 1 1 19 1-2 4-10 7-2 2 1 9 3 10-5-2-11-7-7 2-9 7h-3l3-9 1-10-13-10-1-3 14-1 7-2 3-7z" fill="#BAA88A"/>
<path transform="translate(963,1029)" d="m0 0 7 1 12 5 2 4-16 6-11 7-7 14-3 9v13l8 16 4 7h-15l-3-3-3-17-5-16-2-6 8-5 7-7 9-17z" fill="#FEFEFE"/>
<path transform="translate(964,1324)" d="m0 0h43l1 1v12h-5l-3-3v-2h-9l1 36 4 3v4l-9 1h-10l-2-1 1-4 3-3v-36h-8l-1 4-1 1h-5l-1-1v-11z" fill="#FEFEFE"/>
<path transform="translate(1125,1324)" d="m0 0h19l2 3-5 5v35h11l3-1 2-4 3-1 3 2v12l-3 1h-35l-1-5 4-3 1-7v-30l-4-2-1-4z" fill="#FEFEFE"/>
<path transform="translate(1068,1324)" d="m0 0h19l1 5-4 3v35h14l2-5h5l1 1v12l-3 1h-35l-1-4 4-4 1-19v-11l-2-7-3-3z" fill="#FEFEFE"/>
<path transform="translate(851,1331)" d="m0 0h9l6 4 3 8v14l-3 7-5 4-8 1-5-3-4-5-1-3v-17l3-6z" fill="#585756"/>
<path transform="translate(561,1335)" d="m0 0 9 1 7 6 2 5v8l-5 7-6 3h-11l-5-2-4-4-2-4v-10l4-6 5-3z" fill="#B9A689"/>
<path transform="translate(1429,1336)" d="m0 0h14l5 3 5 6 1 7-3 7-6 5-3 1h-12l-6-4-3-4-1-10 3-6z" fill="#BCA98B"/>
<path transform="translate(1160,1067)" d="m0 0 3 1 3 9 1 5-7 7-8 13-5 11-2 8v25l5 15 6 11h-2l-6-8-7-14-3-15v-12l3-14 5-13 6-12-5 4h-2v2h-2l-2 4-2 1 2-7 8-10z" fill="#FEFEFE"/>
<path transform="translate(988,900)" d="m0 0 4 1 10 17v4l-10 8-7 8-7-1-14-3v-3l7-7 14-19z" fill="#FEFEFE"/>
<path transform="translate(1008,1477)" d="m0 0h10l5 5 1 13-1 14-3 5-7 2-7-2-2-3-1-9v-17l2-6z" fill="#FEFEFE"/>
<path transform="translate(1029,1324)" d="m0 0h17l2 1-1 5-3 2v36l4 3v4l-8 1h-11l-2-1 1-4 3-3 1-14v-15l-1-7-4-5v-2z" fill="#FEFEFE"/>
<path transform="translate(980,1060)" d="m0 0h9l10 6 4 5 3 7v10l-4 10-4 5-8 5-3 1h-16l-8-6-5-10v-13l3-7h2l2-4 3-3zm-5 4-8 6-5 6-1 3v9l5 10 5 4 6 2h8l8-4 5-6 2-4v-12l-2-5-4-5-8-4z" fill="#FCFBFA"/>
<path transform="translate(921,1446)" d="m0 0h21l-2 4h-183l-10-1-1-2z" fill="#9C8F7A"/>
<path transform="translate(1251,1446)" d="m0 0 3 1-1 3h-194l-2-1v-2z" fill="#BAA88A"/>
<path transform="translate(979,1070)" d="m0 0 7 1 6 4 2 4v9l-3 6-6 3h-11l-6-7-1-9 3-6 5-4z" fill="#FEFEFE"/>
<path transform="translate(787,903)" d="m0 0 9 3 15 8 14 7 12 8 16 12 12 11 10 10 8 11v2l-5-2-8-8-7-8-11-11-13-10-11-8 1 5-5-2-14-10-20-12-3-5z" fill="#FEFEFE"/>
<path transform="translate(783,893)" d="m0 0 6 2 46 18 13 4 16 7 3 3 2 7-5-1-15-9-9-4 5 7-4-1-24-13-25-12-8-4z" fill="#FBFBFA"/>
<path transform="translate(1101,950)" d="m0 0h3l-2 4-1 4 4 2 7-3 5 1h7l3-2 5 1 2 3-1 4-24 7h-7l-11-12-4-6v-2z" fill="#FBFBFA"/>
<path transform="translate(981,1477)" d="m0 0h11l3 2 1 3v7l-5-1-3-4-4-1v24l2 2 3-1 3-5h4l-1 10-3 2h-12l-3-4-1-5v-19l3-9z" fill="#FEFEFE"/>
<path transform="translate(1149,588)" d="m0 0 2 1 5 32-15-1-6-1 1-6 8-16z" fill="#605D5A"/>
<path transform="translate(1208,1124)" d="m0 0h9l5 4 1 2v8l-5 6-8 1-6-5-1-2v-9z" fill="#5A5957"/>
<path transform="translate(1167,963)" d="m0 0h5l-1 5-12 11-9 10h-2l-1-8-6-4 1-4 13-5z" fill="#65615C"/>
<path transform="translate(1169,1029)" d="m0 0h4l11 22-1 5-10 1-7-14-1-8z" fill="#FEFEFE"/>
<path transform="translate(788,1331)" d="m0 0h9l5 3 2 4-1 7-3 3-8 2-6-2-1-4v-8l1-4z" fill="#5E5B59"/>
<path transform="translate(784,1125)" d="m0 0h7l5 3 2 6-2 5-6 5h-6l-5-5-1-8 4-5z" fill="#FEFEFE"/>
<path transform="translate(1080,1472)" d="m0 0h97v3h-97z" fill="#756F65"/>
<path transform="translate(562,1341)" d="m0 0 6 1 4 4v8l-5 5-5 1-7-3-2-4 1-7 4-4z" fill="#FEFEFE"/>
<path transform="translate(924,1014)" d="m0 0 5 1 16 8 11 6-2 4-2 2-6-1-23-13-1-4z" fill="#FEFEFE"/>
<path transform="translate(1436,1341)" d="m0 0 6 1 4 3v10l-6 5-8-1-4-4v-9l5-4z" fill="#FEFEFE"/>
<path transform="translate(823,1472)" d="m0 0h97v3h-97z" fill="#6D6861"/>
<path transform="translate(1476,730)" d="m0 0 7 1 4 5-1 7-5 4h-6l-6-7 1-5 4-4z" fill="#FEFEFE"/>
<path transform="translate(518,730)" d="m0 0 7 1 4 4v7l-5 5h-6l-5-4-1-2v-6l4-4z" fill="#FEFEFE"/>
<path transform="translate(916,1331)" d="m0 0 10 1 3 2 1 6-2 5-4 2h-9l-1-1v-14z" fill="#5B5957"/>
<path transform="translate(1191,1063)" d="m0 0h3l5 11-1 5-10 4-3-1-1-11 5-7z" fill="#FEFEFE"/>
<path transform="translate(1251,1446)" d="m0 0 3 1v2h-99v-1l12-1z" fill="#767066"/>
<path transform="translate(924,422)" d="m0 0 5 2 2 5v5l-2 2h-11l-1-1v-9l2-3z" fill="#BDAB8E"/>
<path transform="translate(1011,1483)" d="m0 0 5 1 1 13v10l-2 3-4-1-1-7v-18z" fill="#68645E"/>
<path transform="translate(1077,422)" d="m0 0 4 1 2 3 1 9-1 1h-10l-4-4 2-7z" fill="#B9A689"/>
<path transform="translate(910,1159)" d="m0 0 7 1 2 3v6l-4 4-7-1-3-5 1-5z" fill="#63605B"/>
<path transform="translate(921,1446)" d="m0 0h21l-2 4h-41l1-3z" fill="#BBA88A"/>
<path transform="translate(1204,1338)" d="m0 0 3 1 4 13-1 3h-8l-2-1 1-7z" fill="#64615C"/>
<path transform="translate(987,998)" d="m0 0 7 1 3 3-10 5-10 2 2-5 6-5z" fill="#FEFEFE"/>
<path transform="translate(938,1115)" d="m0 0 6 2 8 6 5 2-4 1-16-4-2-1 2-5z" fill="#FEFEFE"/>
<path transform="translate(1185,1057)" d="m0 0h5l-1 3-17 7-3-2 5-4z" fill="#FEFEFE"/>
<path transform="translate(1e3 1117)" d="m0 0 4 1 1 1v6l-2 3-6-2-1-5z" fill="#69655F"/>
<path transform="translate(1029,791)" d="m0 0 3 2-1 6-5 10-3 2 1-7 3-9z" fill="#837A6C"/>
<path transform="translate(1033,1126)" d="m0 0h6l1 5-3 4-5-2-1-4z" fill="#68645E"/>
<path transform="translate(1016,983)" d="m0 0h7l-2 5 7 1v1l-8 1h-9l1-3 6-1v-3z" fill="#C7B8A0"/>
<path transform="translate(1251,1446)" d="m0 0 3 1v2h-23l1-2z" fill="#5A5856"/>
<path transform="translate(823,1472)" d="m0 0 20 1v2h-20z" fill="#8B8171"/>
<path transform="translate(1065,941)" d="m0 0 11 2 7 3 1 2-12-3h-6z" fill="#D0C3AF"/>
<path transform="translate(932,1109)" d="m0 0h3l-2 5-5 7-3 1 2-5z" fill="#FEFEFE"/>
<path transform="translate(1065,996)" d="m0 0 2 4 11-2v2l-10 4-3-1z" fill="#B09F85"/>
<path transform="translate(1145,944)" d="m0 0 3 1 5 9v3l-4-2-4-9z" fill="#FEFEFE"/>
<path transform="translate(712,1092)" d="m0 0 3 3-5 10h-1v-6z" fill="#BDAB8E"/>
<path transform="translate(1029,820)" d="m0 0 3 1 7 9-1 2-7-7z" fill="#D2C6B2"/>
</svg>
